# xmcd
#
# Track frame offsets:
#	150
#	16097
#	36309
#	50721
#	72099
#	89960
#	107266
#	119567
#	140659
#	154942
#	173639
#	187709
#	201902
#	224346
#	243967
#	258016
#	276179
#	309221
#
# Disc length: 4396 seconds
#
# Revision: 1
# Processed by: cddbd v1.5.1PL0 Copyright (c) Steve Scherf et al.
# Submitted via: EasyCDDAExtractor 7.0.5.1
#
DISCID=fc112a12
DTITLE=Allan Mikusek - To najlepsie naziwo
DYEAR=2003
DGENRE=Country
TTITLE0=Koncert
TTITLE1=Tak uz chod
TTITLE2=Country Music
TTITLE3=Ocean Slz
TTITLE4=Stastna ako zena ma byt
TTITLE5=S diablom v dusi
TTITLE6=Stale hram
TTITLE7=Co o mne vies
TTITLE8=Zpivam ti min
TTITLE9=Zajtra odchadzam
TTITLE10=Stado
TTITLE11=Hviezda na tricku
TTITLE12=Vila
TTITLE13=Kraska s mobilom
TTITLE14=Laska skusa nas
TTITLE15=Ty si ta...
TTITLE16=Pat strun
TTITLE17=Tam u nebeskych bran
EXTD=
EXTT0=
EXTT1=
EXTT2=
EXTT3=
EXTT4=
EXTT5=
EXTT6=
EXTT7=
EXTT8=
EXTT9=
EXTT10=
EXTT11=
EXTT12=
EXTT13=
EXTT14=
EXTT15=
EXTT16=
EXTT17=
PLAYORDER=
